<svg width="36" height="28" viewBox="0 0 36 28" fill="none" xmlns="http://www.w3.org/2000/svg">
<path fill-rule="evenodd" clip-rule="evenodd" d="M0 3.81818C0 1.70946 1.70947 0 3.81818 0H32.1818C34.2905 0 36 1.70946 36 3.81818C36 5.9269 34.2905 7.63636 32.1818 7.63636H3.81818C1.70947 7.63636 0 5.9269 0 3.81818ZM0 14C0 11.8913 1.70947 10.1818 3.81818 10.1818H32.1818C34.2905 10.1818 36 11.8913 36 14C36 16.1087 34.2905 17.8182 32.1818 17.8182H3.81818C1.70947 17.8182 0 16.1087 0 14ZM3.81818 20.3636C1.70947 20.3636 0 22.0731 0 24.1818C0 26.2905 1.70947 28 3.81818 28H32.1818C34.2905 28 36 26.2905 36 24.1818C36 22.0731 34.2905 20.3636 32.1818 20.3636H3.81818Z" fill="#D9D9D9"/>
</svg>
