<svg width="21" height="25" viewBox="0 0 21 25" fill="none" xmlns="http://www.w3.org/2000/svg">
<path fill-rule="evenodd" clip-rule="evenodd" d="M6 2H15C15.5523 2 16 2.44772 16 3V5C16 5.55228 15.5523 6 15 6H6C5.44772 6 5 5.55228 5 5V3C5 2.44772 5.44772 2 6 2ZM3.29473 6.29833C3.10583 5.90545 3 5.46509 3 5V3C3 1.34315 4.34315 0 6 0H15C16.6569 0 18 1.34315 18 3V5C18 5.46509 17.8942 5.90545 17.7053 6.29833C19.6271 6.99551 21 8.83742 21 11V20C21 22.7614 18.7614 25 16 25H5C2.23858 25 0 22.7614 0 20V11C0 8.83742 1.37293 6.99551 3.29473 6.29833ZM15 8H6H5C3.34315 8 2 9.34315 2 11V20C2 21.6569 3.34315 23 5 23H16C17.6569 23 19 21.6569 19 20V11C19 9.34315 17.6569 8 16 8H15Z" fill="black"/>
</svg>
